<svg fill="none" height="194" viewBox="0 0 241 194" width="241" xmlns="http://www.w3.org/2000/svg" xmlns:xlink="http://www.w3.org/1999/xlink"><mask id="a" height="194" maskUnits="userSpaceOnUse" width="242" x="-1" y="0"><path d="m240.469.958984h-240.47485938v192.959016h240.47485938z" fill="#fff"/></mask><g mask="url(#a)"><path d="m96.1344 193.911c-35.0032 0-63.4747-15.655-80.1623-44.082-14.77422-24.917-15.97795938-51.9061-15.97795938-82.0628 0-17.8786 5.37878938-33.4447 15.54715938-45.0196 9.3448-10.6309 22.5858-17.51753 37.2904-19.39282 17.4541-2.21107 39.1531-2.394796 61.7133-2.394796 36.714 0 47.085.449816 61.53 1.894296 19.215 1.90698 35.383 9.07872 46.749 20.74222 11.544 11.8473 17.645 27.6669 17.645 45.7672v3.6367c0 30.8856-20.648 56.7336-49.423 63.7596-2.148 5.068-4.809 10.112-7.957 15.078l-.083.127c-10.137 15.668-33.964 41.954-79.605 41.954h-7.2729z" fill="#fff"/><path d="m174.568 17.9772c-13.641-1.3621-23.188-1.8183-60.016-1.8183-23.644 0-43.6512.2281-59.7876 2.2745-21.3695 2.7306-39.5586 19.0951-39.5586 49.334 0 30.2392 1.5902 53.6546 13.8683 74.3396 13.8684 23.644 37.0561 36.6 67.0671 36.6h7.2728c36.828 0 56.836-19.551 66.839-35.009 4.321-6.824 7.501-13.64 9.548-20.464 26.146-2.274 45.469-23.8716 45.469-50.2399v-3.6364c0-28.4145-18.639-48.1937-50.696-51.3805z" fill="#fff"/><path d="m15.1975 67.7674c0-30.2389 18.1891-46.6034 39.5584-49.334 16.1428-2.0464 36.1501-2.2745 59.7881-2.2745 36.828 0 46.375.4562 60.015 1.8183 32.058 3.1804 50.696 22.9598 50.696 51.3805v3.6364c0 26.3746-19.323 47.9719-45.469 50.2399-2.046 6.824-5.227 13.64-9.548 20.464-10.003 15.458-30.01 35.009-66.838 35.009h-7.2736c-30.0109 0-53.1987-12.956-67.0669-36.6-12.2781-20.685-13.8683-43.6507-13.8683-74.3396" fill="#202020"/><path d="m32.2469 67.9899c0 29.3269 1.8185 48.1941 11.3658 65.6991 10.9098 20.235 30.6891 27.964 53.199 27.964h7.0453c29.554 0 43.879-14.324 51.836-26.824 3.865-6.367 7.273-13.412 9.091-22.282l1.363-5.683h8.185c18.189 0 33.876-14.774 33.876-33.6474v-3.4084c0-21.1413-13.184-32.2854-36.15-35.0095-12.956-1.1341-20.686-1.5903-57.52-1.5903-24.7778 0-42.5108.228-55.9228 2.2744-18.8669 2.7306-26.3745 13.4123-26.3745 32.5071" fill="#fff"/><path d="m166.158 83.6801c0 2.7306 2.046 4.7771 5.683 4.7771 11.594 0 17.961-6.5953 17.961-17.5049s-6.367-17.7328-17.961-17.7328c-3.637 0-5.683 2.0462-5.683 4.7768v25.6903z" fill="#202020"/><path d="m54.5321 82.3198c0 13.4122 7.5011 25.0062 17.0486 34.1042 6.3671 6.138 16.3708 12.506 23.1878 16.598 2.0462 1.135 4.0926 1.819 6.3675 1.819 2.73 0 4.998-.684 6.823-1.819 6.823-4.092 16.82-10.46 22.96-16.598 9.775-9.092 17.276-20.6857 17.276-34.1042 0-14.5525-10.909-27.5083-26.596-27.5083-9.319 0-15.687 4.7767-20.463 11.3657-4.3213-6.5952-10.9101-11.3657-20.2359-11.3657-15.9146 0-26.3745 12.9558-26.3745 27.5083" fill="#ff5a16"/></g></svg>