<svg fill="none" viewBox="0 0 48 48" xmlns="http://www.w3.org/2000/svg"><path d="m37.972 13.82c.107-5.565-4.485-9.837-10.799-9.837h-13.058a1.278 1.278 0 0 0 -1.262 1.079l-5.233 32.696a1.038 1.038 0 0 0 1.025 1.2h7.737l-1.21 7.572a1.038 1.038 0 0 0 1.026 1.2h6.302c.305 0 .576-.11.807-.307.231-.198.269-.471.316-.772l1.85-10.885c.047-.3.2-.69.432-.888.231-.198.433-.306.737-.307h3.858c6.183 0 11.43-4.394 12.389-10.507.678-4.34-1.182-8.287-4.916-10.244z" fill="#001c64"/><path d="m18.056 26.9-1.927 12.22-1.21 7.664a1.038 1.038 0 0 0 1.026 1.2h6.67a1.278 1.278 0 0 0 1.261-1.079l1.758-11.14a1.277 1.277 0 0 1 1.261-1.078h3.927c6.183 0 11.429-4.51 12.388-10.623.68-4.339-1.504-8.286-5.238-10.244-.01.462-.05.923-.121 1.38-.959 6.112-6.206 10.623-12.389 10.623h-6.145a1.277 1.277 0 0 0 -1.261 1.077z" fill="#0070e0"/><path d="m16.128 39.12h-7.76a1.037 1.037 0 0 1 -1.025-1.2l5.232-33.182a1.277 1.277 0 0 1 1.262-1.078h13.337c6.313 0 10.905 4.595 10.798 10.16-1.571-.824-3.417-1.295-5.44-1.295h-11.119a1.278 1.278 0 0 0 -1.261 1.078l-2.095 13.297-1.93 12.22z" fill="#003087"/></svg>